<?xml version="1.0" standalone="no"?><!DOCTYPE svg PUBLIC "-//W3C//DTD SVG 1.1//EN" "http://www.w3.org/Graphics/SVG/1.1/DTD/svg11.dtd"><svg t="1505443729901" class="icon" style="" viewBox="0 0 1024 1024" version="1.1" xmlns="http://www.w3.org/2000/svg" p-id="9623" xmlns:xlink="http://www.w3.org/1999/xlink" width="200" height="200"><defs><style type="text/css"></style></defs><path d="M512 512m-400 0a400 400 0 1 0 800 0 400 400 0 1 0-800 0Z" fill="#7ACD22" p-id="9624"></path><path d="M641.7 582.3c-20.7 0-39.5 8.4-53.1 22l-173.4-82.7c0.7-3.6 0.9-7.3 1.1-11l153.9-131.8c6.8 2.1 13.9 3.5 21.5 3.5 41.4 0 75-33.6 75-75s-33.6-75-75-75-75 33.6-75 75c0 15.1 4.6 29.2 12.3 41L399.1 459.6c-13.8-16.5-34.2-27.2-57.4-27.2-41.4 0-75 33.6-75 75s33.6 75 75 75c18.2 0 34.7-6.8 47.7-17.6l178 84.9c-0.3 2.6-0.8 5.1-0.8 7.7 0 41.4 33.6 75 75 75s75-33.6 75-75-33.5-75.1-74.9-75.1z" fill="#FFFFFF" p-id="9625"></path></svg>