<?xml version="1.0" standalone="no"?><!DOCTYPE svg PUBLIC "-//W3C//DTD SVG 1.1//EN" "http://www.w3.org/Graphics/SVG/1.1/DTD/svg11.dtd"><svg t="1504414332997" class="icon" style="" viewBox="0 0 1025 1024" version="1.1" xmlns="http://www.w3.org/2000/svg" p-id="1014" xmlns:xlink="http://www.w3.org/1999/xlink" width="200.1953125" height="200"><defs><style type="text/css"></style></defs><path d="M707.489197 256.722234 316.509779 256.722234c-9.822174 0-17.778769 7.966829-17.778769 17.760349L298.73101 754.35687c0 9.795567 7.956595 17.740905 17.778769 17.740905l390.979418 0c9.832407 0 17.789003-7.945338 17.789003-17.740905L725.2782 274.482582C725.277177 264.689063 717.322628 256.722234 707.489197 256.722234zM354.271627 681.918593c-8.984045 0-16.265225-7.291414-16.265225-16.264202 0-8.977905 7.279133-16.267272 16.265225-16.267272 8.985068-0.002047 16.267272 7.28732 16.267272 16.267272C370.538899 674.62718 363.258742 681.918593 354.271627 681.918593zM354.271627 584.349756c-8.984045 0-16.265225-7.29346-16.265225-16.267272s7.279133-16.266249 16.265225-16.266249 16.267272 7.289367 16.267272 16.266249S363.258742 584.349756 354.271627 584.349756zM354.271627 486.780919c-8.984045 0-16.265225-7.289367-16.265225-16.267272 0-8.974835 7.279133-16.266249 16.265225-16.266249s16.267272 7.291414 16.267272 16.266249C370.538899 479.489505 363.258742 486.780919 354.271627 486.780919zM354.271627 389.213105c-8.984045 0-16.265225-7.289367-16.265225-16.267272 0-8.972788 7.279133-16.264202 16.265225-16.264202 8.985068 0.002047 16.267272 7.29346 16.267272 16.264202C370.538899 381.921691 363.258742 389.213105 354.271627 389.213105zM668.54742 677.273579 430.249693 677.273579c-7.052972 0-12.76944-5.726702-12.76944-12.76637 0-7.049902 5.716468-12.768417 12.76944-12.768417l238.296703 0c7.049902 0 12.76944 5.718515 12.76944 12.768417C681.314813 671.546877 675.596298 677.273579 668.54742 677.273579zM668.54742 579.706788 430.249693 579.706788c-7.052972 0-12.76944-5.730795-12.76944-12.768417 0-7.049902 5.716468-12.768417 12.76944-12.768417l238.296703 0c7.049902 0 12.76944 5.718515 12.76944 12.768417C681.314813 573.97804 675.596298 579.706788 668.54742 579.706788zM668.54742 482.242334 430.249693 482.242334c-7.052972 0-12.76944-5.714422-12.76944-12.768417 0-7.047855 5.716468-12.768417 12.76944-12.768417l238.296703 0c7.049902 0 12.76944 5.720562 12.76944 12.768417C681.314813 476.527912 675.596298 482.242334 668.54742 482.242334zM668.54742 384.781972 430.249693 384.781972c-7.052972 0-12.76944-5.716468-12.76944-12.771487 0-7.049902 5.716468-12.76637 12.76944-12.76637l238.296703 0c7.049902 0 12.76944 5.716468 12.76944 12.76637C681.314813 379.065504 675.596298 384.781972 668.54742 384.781972zM512.000512 63.188159c-247.872248 0-448.812353 200.940105-448.812353 448.81133s200.940105 448.813376 448.812353 448.813376 448.812353-200.941128 448.812353-448.813376S759.87276 63.188159 512.000512 63.188159zM751.928445 754.35687c0 24.524734-19.91349 44.404454-44.440271 44.404454L316.509779 798.761323c-24.524734 0-44.438224-19.87972-44.438224-44.404454L272.071555 274.482582c0-24.528827 19.91349-44.421851 44.438224-44.421851l390.979418 0c24.526781 0 44.440271 19.893023 44.440271 44.421851L751.929468 754.35687z" fill="#d81e06" p-id="1015"></path></svg>